<?xml version="1.0" standalone="no"?>
<!DOCTYPE svg PUBLIC "-//W3C//DTD SVG 20010904//EN"
 "http://www.w3.org/TR/2001/REC-SVG-20010904/DTD/svg10.dtd">
<svg version="1.0" xmlns="http://www.w3.org/2000/svg"
 width="88.000000pt" height="88.000000pt" viewBox="0 0 88.000000 88.000000"
 preserveAspectRatio="xMidYMid meet">
<metadata>
Created by potrace 1.16, written by Peter Selinger 2001-2019
</metadata>
<g transform="translate(0.000000,88.000000) scale(0.100000,-0.100000)"
fill="#000000" stroke="none">
<path d="M358 841 c-52 -17 -94 -50 -118 -93 -21 -37 -25 -61 -31 -188 -9
-190 -32 -248 -158 -395 -47 -55 -51 -63 -51 -112 l0 -53 440 0 440 0 0 71 0
70 -65 77 c-110 129 -145 224 -145 388 0 160 -66 234 -215 240 -38 2 -82 -1
-97 -5z m57 -151 c22 -24 31 -100 16 -129 -10 -17 -21 -21 -66 -21 -52 0 -54
1 -65 35 -14 42 -6 85 21 114 25 26 70 27 94 1z m148 0 c32 -25 44 -79 27
-120 -11 -27 -17 -30 -60 -30 -59 0 -75 17 -75 77 0 37 5 49 28 69 34 29 47
30 80 4z m40 -201 c42 -11 44 -19 20 -55 -20 -31 -150 -124 -172 -124 -25 0
-113 54 -153 96 -47 47 -49 70 -5 83 44 13 264 13 310 0z m-230 -174 c35 -19
70 -35 78 -35 8 0 41 16 73 36 70 42 85 40 147 -15 55 -48 94 -118 108 -192
19 -107 48 -99 -337 -99 l-335 0 6 67 c4 41 17 88 32 119 26 53 125 154 150
154 8 0 43 -16 78 -35z"/>
</g>
</svg>
